<svg xmlns="http://www.w3.org/2000/svg" viewBox="0 0 856 856"><defs><style>.cls-1{fill:#cbf8ff;}.cls-2{fill:#a8f9ff;}.cls-3{fill:#74deff;}.cls-4{fill:#77a4ff;}.cls-5{fill:#3350ff;}</style></defs><title>icon</title><g id="Layer_2" data-name="Layer 2"><g id="Layer_1-2" data-name="Layer 1"><path class="cls-1" d="M855,398.76q1,14.49,1,29.24a426.1,426.1,0,0,1-49.57,200.13C755,498.31,628.51,406.41,480.48,406l-12.74-16.34A351.73,351.73,0,0,1,855,398.76Z"/><path class="cls-2" d="M806.43,628.13a430,430,0,0,1-148.66,161A352.92,352.92,0,0,0,662,734.5c0-119.13-59.26-224.42-149.92-288L480.48,406C628.51,406.41,755,498.31,806.43,628.13Z"/><path class="cls-3" d="M662,734.5a352.92,352.92,0,0,1-4.23,54.65,425.2,425.2,0,0,1-198.14,65.69A349.61,349.61,0,0,0,528.21,687c48.13-.81,87.5-27.85,87.5-80.46,0-24.21-10.68-40.59-24.92-59.1l-78.71-100.9C602.74,510.08,662,615.37,662,734.5Z"/><path class="cls-4" d="M590.79,547.42c14.24,18.51,24.92,34.89,24.92,59.1,0,52.61-39.37,79.65-87.5,80.46A354.83,354.83,0,0,0,531,642.5q0-13.41-1-26.56c6.86-.21,14.49-1.72,14.49-8.7,0-5.7-10-16.38-12.82-20.65l-6.56-8.44a350.36,350.36,0,0,0-83.53-169.88,349.44,349.44,0,0,1,70.49,38.25Z"/><path class="cls-1" d="M615.71,224.09c0,22.79-11.39,41.31-37,41.31-21.36,0-34.18-13.54-34.18-33.48,0-24.21-12.11-27.77-34.19-27.77h-151c-7.83,0-24.21-2.14-24.21,10,0,6.41,7.83,14.95,10.68,19.23l32.74,42L377,276.49A353,353,0,0,0,269.12,185c6-15.82,17.1-29.27,32.53-39.26,19.94-12.82,36.32-12.82,59.11-12.82h151c27.06,0,49.85,5.7,70.5,23.5C600.76,172.81,615.71,199.16,615.71,224.09Z"/><path class="cls-3" d="M531.68,586.59c2.85,4.27,12.82,14.95,12.82,20.65,0,7-7.63,8.49-14.49,8.7a352.79,352.79,0,0,0-4.89-37.79Z"/><path class="cls-1" d="M530,615.94q1,13.14,1,26.56A354.83,354.83,0,0,1,528.21,687L526,687H394a349.84,349.84,0,0,0,36.15-71.22H521C523,615.78,526.38,616,530,615.94Z"/><path class="cls-4" d="M530,615.94c-3.63.1-7-.16-9-.16H430.14A350.58,350.58,0,0,0,452,493.5q0-4.77-.12-9.51l73.24,94.16A352.79,352.79,0,0,1,530,615.94Z"/><path class="cls-4" d="M526,687l2.23,0a349.61,349.61,0,0,1-68.58,167.86Q444,856,428,856a430.68,430.68,0,0,1-86.7-8.78,348.55,348.55,0,0,1-27.79-74.1A353.16,353.16,0,0,0,394,687Z"/><path class="cls-1" d="M525.12,578.15,451.88,484a351.64,351.64,0,0,0-10.29-75.72A350.36,350.36,0,0,1,525.12,578.15Z"/><path class="cls-3" d="M480.48,406l31.6,40.51a349.44,349.44,0,0,0-70.49-38.25h0a1,1,0,0,0-.05-.23,355.32,355.32,0,0,1,38-2Z"/><path class="cls-2" d="M467.74,389.67,480.48,406h-1a355.32,355.32,0,0,0-38,2,.83.83,0,0,0,0-.15Q454.18,398.19,467.74,389.67Z"/><path class="cls-1" d="M378.54,275.32l89.2,114.35q-13.55,8.5-26.25,18.21A350,350,0,0,0,377,276.49Z"/><path class="cls-1" d="M451.88,484,412.15,432.9a352.06,352.06,0,0,1,29-24.8l.39.16h0A351.64,351.64,0,0,1,451.88,484Z"/><path class="cls-1" d="M441.49,407.88l-.16.11a352.17,352.17,0,0,0-114.42-84.67l-39.51-50.8c-14.95-19.23-23.5-33.47-23.5-58.4A81.18,81.18,0,0,1,269.12,185,353,353,0,0,1,377,276.49,350,350,0,0,1,441.49,407.88Z"/><path class="cls-1" d="M441.33,408l-.09.07-.12,0a347,347,0,0,0-62.68-18.51l-51.53-66.25A352.17,352.17,0,0,1,441.33,408Z"/><path class="cls-1" d="M441.12,408.08l.07,0a352.06,352.06,0,0,0-29,24.8l-13.63-17.52A347.57,347.57,0,0,1,441.12,408.08Z"/><path class="cls-1" d="M366.45,615.78h63.69A349.84,349.84,0,0,1,394,687H369.3c-24.5,0-46.09-4.08-65.81-18.08a349.33,349.33,0,0,1,21.48-104c6.52,6.76,10.15,16.39,10.15,26.63C335.12,612.94,346.51,615.78,366.45,615.78Z"/><path class="cls-1" d="M441.12,408.08a347.57,347.57,0,0,0-42.6,7.3l-20.08-25.81A347,347,0,0,1,441.12,408.08Z"/><path class="cls-5" d="M428,0C301.51,0,187.84,54.87,109.49,142.11A428.26,428.26,0,0,0,243.92,814.5a350.49,350.49,0,0,0,69.59-41.38A353.16,353.16,0,0,0,394,687H369.3c-24.5,0-46.09-4.08-65.81-18.08q-3.09-2.19-6.12-4.71c-19.23-15.67-33.47-41.3-33.47-66.23,0-22.79,12.82-42.73,37.75-42.73A31.61,31.61,0,0,1,325,564.94c6.52,6.76,10.15,16.39,10.15,26.63,0,21.37,11.39,24.21,31.33,24.21h63.69A350.58,350.58,0,0,0,452,493.5q0-4.77-.12-9.51L412.15,432.9l-13.63-17.52-20.08-25.81-51.53-66.25-39.51-50.8c-15-19.23-23.5-33.47-23.5-58.4A81.17,81.17,0,0,1,269.12,185c6-15.82,17.1-29.27,32.53-39.26,19.94-12.82,36.32-12.82,59.11-12.82h151c27.06,0,49.85,5.7,70.5,23.5,18.52,16.38,33.47,42.73,33.47,67.66,0,22.79-11.39,41.31-37,41.31-21.36,0-34.18-13.54-34.18-33.48,0-24.21-12.11-27.77-34.19-27.77h-151c-7.83,0-24.21-2.14-24.21,10,0,6.41,7.83,15,10.68,19.23l32.74,42,89.2,114.35A351.73,351.73,0,0,1,855,398.76C840,176,654.55,0,428,0Z"/><path class="cls-4" d="M313.51,773.12a348.55,348.55,0,0,0,27.79,74.1,424.57,424.57,0,0,1-97.38-32.72A350.49,350.49,0,0,0,313.51,773.12Z"/><path class="cls-1" d="M325,564.94a349.33,349.33,0,0,0-21.48,104q-3.09-2.19-6.12-4.71c-19.23-15.67-33.47-41.3-33.47-66.23,0-22.79,12.82-42.73,37.75-42.73A31.61,31.61,0,0,1,325,564.94Z"/></g></g></svg>